<?xml version="1.0" encoding="UTF-8"?>
<svg xmlns="http://www.w3.org/2000/svg" xmlns:xlink="http://www.w3.org/1999/xlink" width="50px" height="50px" viewBox="0 0 50 50" version="1.1">
<g id="surface1">
<path style=" stroke:none;fill-rule:evenodd;fill:rgb(0%,49.411765%,73.333333%);fill-opacity:1;" d="M 50 47.726562 L 38.949219 47.726562 L 38.949219 31.75 C 38.949219 27.566406 37.222656 24.710938 33.417969 24.710938 C 30.511719 24.710938 28.894531 26.636719 28.144531 28.496094 C 27.859375 29.160156 27.90625 30.089844 27.90625 31.019531 L 27.90625 47.726562 L 16.957031 47.726562 C 16.957031 47.726562 17.097656 19.421875 16.957031 16.847656 L 27.90625 16.847656 L 27.90625 21.695312 C 28.550781 19.574219 32.050781 16.550781 37.632812 16.550781 C 44.558594 16.550781 50 20.992188 50 30.558594 Z M 5.886719 12.988281 L 5.816406 12.988281 C 2.289062 12.988281 0 10.625 0 7.632812 C 0 4.582031 2.355469 2.273438 5.953125 2.273438 C 9.546875 2.273438 11.757812 4.578125 11.828125 7.625 C 11.828125 10.617188 9.546875 12.988281 5.886719 12.988281 Z M 1.261719 16.847656 L 11.007812 16.847656 L 11.007812 47.726562 L 1.261719 47.726562 Z M 1.261719 16.847656 "/>
</g>
</svg>
